<mxfile host="app.diagrams.net" agent="Mozilla/5.0 (Windows NT 10.0; Win64; x64) AppleWebKit/537.36 (KHTML, like Gecko) Chrome/127.0.0.0 Safari/537.36 Edg/127.0.0.0" version="24.7.6">
  <diagram name="Página-1" id="hdt4SwTaabaoey-feYUU">
    <mxGraphModel dx="1387" dy="785" grid="1" gridSize="10" guides="1" tooltips="1" connect="1" arrows="1" fold="1" page="1" pageScale="1" pageWidth="827" pageHeight="1169" math="0" shadow="0">
      <root>
        <mxCell id="0" />
        <mxCell id="1" parent="0" />
        <mxCell id="6FnOU0rwbtTwVomRZq-C-1" value="" style="rounded=0;whiteSpace=wrap;html=1;" vertex="1" parent="1">
          <mxGeometry x="250" y="267.5" width="120" height="60" as="geometry" />
        </mxCell>
        <mxCell id="6FnOU0rwbtTwVomRZq-C-7" value="" style="endArrow=classic;startArrow=classic;html=1;rounded=0;" edge="1" parent="1">
          <mxGeometry width="50" height="50" relative="1" as="geometry">
            <mxPoint x="150" y="267.5" as="sourcePoint" />
            <mxPoint x="220" y="267.5" as="targetPoint" />
          </mxGeometry>
        </mxCell>
        <mxCell id="6FnOU0rwbtTwVomRZq-C-8" value="" style="endArrow=classic;startArrow=classic;html=1;rounded=0;" edge="1" parent="1">
          <mxGeometry width="50" height="50" relative="1" as="geometry">
            <mxPoint x="150" y="287.5" as="sourcePoint" />
            <mxPoint x="220" y="287.5" as="targetPoint" />
          </mxGeometry>
        </mxCell>
        <mxCell id="6FnOU0rwbtTwVomRZq-C-9" value="" style="endArrow=classic;startArrow=classic;html=1;rounded=0;" edge="1" parent="1">
          <mxGeometry width="50" height="50" relative="1" as="geometry">
            <mxPoint x="150" y="307" as="sourcePoint" />
            <mxPoint x="220" y="307" as="targetPoint" />
          </mxGeometry>
        </mxCell>
        <mxCell id="6FnOU0rwbtTwVomRZq-C-10" value="" style="endArrow=classic;startArrow=classic;html=1;rounded=0;" edge="1" parent="1">
          <mxGeometry width="50" height="50" relative="1" as="geometry">
            <mxPoint x="150" y="327.5" as="sourcePoint" />
            <mxPoint x="220" y="327.5" as="targetPoint" />
          </mxGeometry>
        </mxCell>
        <mxCell id="6FnOU0rwbtTwVomRZq-C-12" value="" style="strokeWidth=2;html=1;shape=mxgraph.flowchart.annotation_2;align=left;labelPosition=right;pointerEvents=1;" vertex="1" parent="1">
          <mxGeometry x="220" y="267.5" width="30" height="60" as="geometry" />
        </mxCell>
        <mxCell id="6FnOU0rwbtTwVomRZq-C-15" value="ID_Denuncia" style="text;html=1;align=center;verticalAlign=middle;whiteSpace=wrap;rounded=0;" vertex="1" parent="1">
          <mxGeometry x="80" y="247.5" width="60" height="30" as="geometry" />
        </mxCell>
        <mxCell id="6FnOU0rwbtTwVomRZq-C-16" value="Data" style="text;html=1;align=center;verticalAlign=middle;whiteSpace=wrap;rounded=0;" vertex="1" parent="1">
          <mxGeometry x="100" y="267.5" width="60" height="30" as="geometry" />
        </mxCell>
        <mxCell id="6FnOU0rwbtTwVomRZq-C-17" value="Descrição" style="text;html=1;align=center;verticalAlign=middle;whiteSpace=wrap;rounded=0;" vertex="1" parent="1">
          <mxGeometry x="90" y="287.5" width="60" height="30" as="geometry" />
        </mxCell>
        <mxCell id="6FnOU0rwbtTwVomRZq-C-18" value="Status" style="text;html=1;align=center;verticalAlign=middle;whiteSpace=wrap;rounded=0;" vertex="1" parent="1">
          <mxGeometry x="90" y="307.5" width="60" height="30" as="geometry" />
        </mxCell>
        <mxCell id="6FnOU0rwbtTwVomRZq-C-19" value="Denúncia" style="text;html=1;align=center;verticalAlign=middle;whiteSpace=wrap;rounded=0;" vertex="1" parent="1">
          <mxGeometry x="280" y="282.5" width="60" height="30" as="geometry" />
        </mxCell>
        <mxCell id="6FnOU0rwbtTwVomRZq-C-33" value="" style="rounded=0;whiteSpace=wrap;html=1;" vertex="1" parent="1">
          <mxGeometry x="250" y="430" width="120" height="60" as="geometry" />
        </mxCell>
        <mxCell id="6FnOU0rwbtTwVomRZq-C-34" value="" style="endArrow=classic;startArrow=classic;html=1;rounded=0;" edge="1" parent="1">
          <mxGeometry width="50" height="50" relative="1" as="geometry">
            <mxPoint x="150" y="430" as="sourcePoint" />
            <mxPoint x="220" y="430" as="targetPoint" />
          </mxGeometry>
        </mxCell>
        <mxCell id="6FnOU0rwbtTwVomRZq-C-35" value="" style="endArrow=classic;startArrow=classic;html=1;rounded=0;" edge="1" parent="1">
          <mxGeometry width="50" height="50" relative="1" as="geometry">
            <mxPoint x="150" y="450" as="sourcePoint" />
            <mxPoint x="220" y="450" as="targetPoint" />
          </mxGeometry>
        </mxCell>
        <mxCell id="6FnOU0rwbtTwVomRZq-C-36" value="" style="endArrow=classic;startArrow=classic;html=1;rounded=0;" edge="1" parent="1">
          <mxGeometry width="50" height="50" relative="1" as="geometry">
            <mxPoint x="150" y="469.5" as="sourcePoint" />
            <mxPoint x="220" y="469.5" as="targetPoint" />
          </mxGeometry>
        </mxCell>
        <mxCell id="6FnOU0rwbtTwVomRZq-C-37" value="" style="endArrow=classic;startArrow=classic;html=1;rounded=0;" edge="1" parent="1">
          <mxGeometry width="50" height="50" relative="1" as="geometry">
            <mxPoint x="150" y="490" as="sourcePoint" />
            <mxPoint x="220" y="490" as="targetPoint" />
          </mxGeometry>
        </mxCell>
        <mxCell id="6FnOU0rwbtTwVomRZq-C-38" value="" style="strokeWidth=2;html=1;shape=mxgraph.flowchart.annotation_2;align=left;labelPosition=right;pointerEvents=1;" vertex="1" parent="1">
          <mxGeometry x="220" y="430" width="30" height="60" as="geometry" />
        </mxCell>
        <mxCell id="6FnOU0rwbtTwVomRZq-C-39" value="ID_Suspeito" style="text;html=1;align=center;verticalAlign=middle;whiteSpace=wrap;rounded=0;" vertex="1" parent="1">
          <mxGeometry x="80" y="410" width="60" height="30" as="geometry" />
        </mxCell>
        <mxCell id="6FnOU0rwbtTwVomRZq-C-40" value="Nome" style="text;html=1;align=center;verticalAlign=middle;whiteSpace=wrap;rounded=0;" vertex="1" parent="1">
          <mxGeometry x="100" y="430" width="60" height="30" as="geometry" />
        </mxCell>
        <mxCell id="6FnOU0rwbtTwVomRZq-C-41" value="Email" style="text;html=1;align=center;verticalAlign=middle;whiteSpace=wrap;rounded=0;" vertex="1" parent="1">
          <mxGeometry x="100" y="450" width="60" height="30" as="geometry" />
        </mxCell>
        <mxCell id="6FnOU0rwbtTwVomRZq-C-42" value="Endereço" style="text;html=1;align=center;verticalAlign=middle;whiteSpace=wrap;rounded=0;" vertex="1" parent="1">
          <mxGeometry x="90" y="470" width="60" height="30" as="geometry" />
        </mxCell>
        <mxCell id="6FnOU0rwbtTwVomRZq-C-43" value="Suspeito" style="text;html=1;align=center;verticalAlign=middle;whiteSpace=wrap;rounded=0;" vertex="1" parent="1">
          <mxGeometry x="280" y="445" width="60" height="30" as="geometry" />
        </mxCell>
        <mxCell id="6FnOU0rwbtTwVomRZq-C-44" value="" style="endArrow=classic;startArrow=classic;html=1;rounded=0;" edge="1" parent="1">
          <mxGeometry width="50" height="50" relative="1" as="geometry">
            <mxPoint x="150" y="510" as="sourcePoint" />
            <mxPoint x="220" y="510" as="targetPoint" />
          </mxGeometry>
        </mxCell>
        <mxCell id="6FnOU0rwbtTwVomRZq-C-45" value="Telefone" style="text;html=1;align=center;verticalAlign=middle;whiteSpace=wrap;rounded=0;" vertex="1" parent="1">
          <mxGeometry x="90" y="490" width="60" height="30" as="geometry" />
        </mxCell>
        <mxCell id="6FnOU0rwbtTwVomRZq-C-46" value="" style="rounded=0;whiteSpace=wrap;html=1;" vertex="1" parent="1">
          <mxGeometry x="250" y="590" width="120" height="60" as="geometry" />
        </mxCell>
        <mxCell id="6FnOU0rwbtTwVomRZq-C-47" value="" style="endArrow=classic;startArrow=classic;html=1;rounded=0;" edge="1" parent="1">
          <mxGeometry width="50" height="50" relative="1" as="geometry">
            <mxPoint x="150" y="590" as="sourcePoint" />
            <mxPoint x="220" y="590" as="targetPoint" />
          </mxGeometry>
        </mxCell>
        <mxCell id="6FnOU0rwbtTwVomRZq-C-48" value="" style="endArrow=classic;startArrow=classic;html=1;rounded=0;" edge="1" parent="1">
          <mxGeometry width="50" height="50" relative="1" as="geometry">
            <mxPoint x="150" y="610" as="sourcePoint" />
            <mxPoint x="220" y="610" as="targetPoint" />
          </mxGeometry>
        </mxCell>
        <mxCell id="6FnOU0rwbtTwVomRZq-C-49" value="" style="endArrow=classic;startArrow=classic;html=1;rounded=0;" edge="1" parent="1">
          <mxGeometry width="50" height="50" relative="1" as="geometry">
            <mxPoint x="150" y="629.5" as="sourcePoint" />
            <mxPoint x="220" y="629.5" as="targetPoint" />
          </mxGeometry>
        </mxCell>
        <mxCell id="6FnOU0rwbtTwVomRZq-C-50" value="" style="endArrow=classic;startArrow=classic;html=1;rounded=0;" edge="1" parent="1">
          <mxGeometry width="50" height="50" relative="1" as="geometry">
            <mxPoint x="150" y="650" as="sourcePoint" />
            <mxPoint x="220" y="650" as="targetPoint" />
          </mxGeometry>
        </mxCell>
        <mxCell id="6FnOU0rwbtTwVomRZq-C-51" value="" style="strokeWidth=2;html=1;shape=mxgraph.flowchart.annotation_2;align=left;labelPosition=right;pointerEvents=1;" vertex="1" parent="1">
          <mxGeometry x="220" y="590" width="30" height="60" as="geometry" />
        </mxCell>
        <mxCell id="6FnOU0rwbtTwVomRZq-C-52" value="ID_Agente" style="text;html=1;align=center;verticalAlign=middle;whiteSpace=wrap;rounded=0;" vertex="1" parent="1">
          <mxGeometry x="90" y="570" width="60" height="30" as="geometry" />
        </mxCell>
        <mxCell id="6FnOU0rwbtTwVomRZq-C-53" value="Nome" style="text;html=1;align=center;verticalAlign=middle;whiteSpace=wrap;rounded=0;" vertex="1" parent="1">
          <mxGeometry x="100" y="590" width="60" height="30" as="geometry" />
        </mxCell>
        <mxCell id="6FnOU0rwbtTwVomRZq-C-54" value="Cargo" style="text;html=1;align=center;verticalAlign=middle;whiteSpace=wrap;rounded=0;" vertex="1" parent="1">
          <mxGeometry x="100" y="610" width="60" height="30" as="geometry" />
        </mxCell>
        <mxCell id="6FnOU0rwbtTwVomRZq-C-55" value="Telefone" style="text;html=1;align=center;verticalAlign=middle;whiteSpace=wrap;rounded=0;" vertex="1" parent="1">
          <mxGeometry x="90" y="630" width="60" height="30" as="geometry" />
        </mxCell>
        <mxCell id="6FnOU0rwbtTwVomRZq-C-56" value="Agente" style="text;html=1;align=center;verticalAlign=middle;whiteSpace=wrap;rounded=0;" vertex="1" parent="1">
          <mxGeometry x="280" y="605" width="60" height="30" as="geometry" />
        </mxCell>
        <mxCell id="6FnOU0rwbtTwVomRZq-C-57" value="" style="rounded=0;whiteSpace=wrap;html=1;" vertex="1" parent="1">
          <mxGeometry x="1090" y="587.5" width="120" height="60" as="geometry" />
        </mxCell>
        <mxCell id="6FnOU0rwbtTwVomRZq-C-58" value="" style="endArrow=classic;startArrow=classic;html=1;rounded=0;" edge="1" parent="1">
          <mxGeometry width="50" height="50" relative="1" as="geometry">
            <mxPoint x="1241" y="587.5" as="sourcePoint" />
            <mxPoint x="1311" y="587.5" as="targetPoint" />
          </mxGeometry>
        </mxCell>
        <mxCell id="6FnOU0rwbtTwVomRZq-C-59" value="" style="endArrow=classic;startArrow=classic;html=1;rounded=0;" edge="1" parent="1">
          <mxGeometry width="50" height="50" relative="1" as="geometry">
            <mxPoint x="1240" y="647.5" as="sourcePoint" />
            <mxPoint x="1310" y="647.5" as="targetPoint" />
          </mxGeometry>
        </mxCell>
        <mxCell id="6FnOU0rwbtTwVomRZq-C-60" value="" style="endArrow=classic;startArrow=classic;html=1;rounded=0;" edge="1" parent="1">
          <mxGeometry width="50" height="50" relative="1" as="geometry">
            <mxPoint x="1240" y="610" as="sourcePoint" />
            <mxPoint x="1310" y="610" as="targetPoint" />
          </mxGeometry>
        </mxCell>
        <mxCell id="6FnOU0rwbtTwVomRZq-C-61" value="" style="endArrow=classic;startArrow=classic;html=1;rounded=0;" edge="1" parent="1">
          <mxGeometry width="50" height="50" relative="1" as="geometry">
            <mxPoint x="1241" y="630" as="sourcePoint" />
            <mxPoint x="1311" y="630" as="targetPoint" />
          </mxGeometry>
        </mxCell>
        <mxCell id="6FnOU0rwbtTwVomRZq-C-62" value="" style="strokeWidth=2;html=1;shape=mxgraph.flowchart.annotation_2;align=left;labelPosition=right;pointerEvents=1;" vertex="1" parent="1">
          <mxGeometry x="1210" y="587.5" width="30" height="60" as="geometry" />
        </mxCell>
        <mxCell id="6FnOU0rwbtTwVomRZq-C-63" value="ID_Caso" style="text;html=1;align=center;verticalAlign=middle;whiteSpace=wrap;rounded=0;" vertex="1" parent="1">
          <mxGeometry x="1320" y="570" width="60" height="30" as="geometry" />
        </mxCell>
        <mxCell id="6FnOU0rwbtTwVomRZq-C-64" value="Data_Abertura" style="text;html=1;align=center;verticalAlign=middle;whiteSpace=wrap;rounded=0;" vertex="1" parent="1">
          <mxGeometry x="1330" y="590" width="60" height="30" as="geometry" />
        </mxCell>
        <mxCell id="6FnOU0rwbtTwVomRZq-C-65" value="Data_Encerramento" style="text;html=1;align=center;verticalAlign=middle;whiteSpace=wrap;rounded=0;" vertex="1" parent="1">
          <mxGeometry x="1350" y="610" width="60" height="30" as="geometry" />
        </mxCell>
        <mxCell id="6FnOU0rwbtTwVomRZq-C-66" value="Tipo_Caso" style="text;html=1;align=center;verticalAlign=middle;whiteSpace=wrap;rounded=0;" vertex="1" parent="1">
          <mxGeometry x="1320" y="632.5" width="60" height="30" as="geometry" />
        </mxCell>
        <mxCell id="6FnOU0rwbtTwVomRZq-C-67" value="Caso" style="text;html=1;align=center;verticalAlign=middle;whiteSpace=wrap;rounded=0;" vertex="1" parent="1">
          <mxGeometry x="1120" y="602.5" width="60" height="30" as="geometry" />
        </mxCell>
        <mxCell id="6FnOU0rwbtTwVomRZq-C-68" value="Relação&lt;div&gt;Agente&lt;/div&gt;&lt;div&gt;Denúncia&lt;/div&gt;" style="shape=rhombus;perimeter=rhombusPerimeter;whiteSpace=wrap;html=1;align=center;" vertex="1" parent="1">
          <mxGeometry x="675" y="550" width="140" height="70" as="geometry" />
        </mxCell>
        <mxCell id="6FnOU0rwbtTwVomRZq-C-71" value="Relação&lt;div&gt;Suspeito&lt;/div&gt;&lt;div&gt;Denúncia&lt;/div&gt;" style="shape=rhombus;perimeter=rhombusPerimeter;whiteSpace=wrap;html=1;align=center;" vertex="1" parent="1">
          <mxGeometry x="670" y="300" width="140" height="70" as="geometry" />
        </mxCell>
        <mxCell id="6FnOU0rwbtTwVomRZq-C-74" value="Relação&lt;div&gt;Denúncia&lt;/div&gt;&lt;div&gt;Denunciante&lt;/div&gt;" style="shape=rhombus;perimeter=rhombusPerimeter;whiteSpace=wrap;html=1;align=center;" vertex="1" parent="1">
          <mxGeometry x="665" y="130" width="150" height="75" as="geometry" />
        </mxCell>
        <mxCell id="6FnOU0rwbtTwVomRZq-C-77" value="Relação&lt;div&gt;Caso&lt;/div&gt;&lt;div&gt;Denúncia&lt;/div&gt;" style="shape=rhombus;perimeter=rhombusPerimeter;whiteSpace=wrap;html=1;align=center;" vertex="1" parent="1">
          <mxGeometry x="665" y="422.5" width="150" height="75" as="geometry" />
        </mxCell>
        <mxCell id="6FnOU0rwbtTwVomRZq-C-80" value="Relação&lt;div&gt;Caso&lt;/div&gt;&lt;div&gt;Agente&lt;/div&gt;" style="shape=rhombus;perimeter=rhombusPerimeter;whiteSpace=wrap;html=1;align=center;" vertex="1" parent="1">
          <mxGeometry x="685" y="735" width="120" height="60" as="geometry" />
        </mxCell>
        <mxCell id="6FnOU0rwbtTwVomRZq-C-87" value="" style="endArrow=none;html=1;rounded=0;entryX=0;entryY=0.5;entryDx=0;entryDy=0;" edge="1" parent="1" source="6FnOU0rwbtTwVomRZq-C-46" target="6FnOU0rwbtTwVomRZq-C-80">
          <mxGeometry relative="1" as="geometry">
            <mxPoint x="370" y="620" as="sourcePoint" />
            <mxPoint x="530" y="620" as="targetPoint" />
          </mxGeometry>
        </mxCell>
        <mxCell id="6FnOU0rwbtTwVomRZq-C-88" value="1" style="resizable=0;html=1;whiteSpace=wrap;align=right;verticalAlign=bottom;" connectable="0" vertex="1" parent="6FnOU0rwbtTwVomRZq-C-87">
          <mxGeometry x="1" relative="1" as="geometry" />
        </mxCell>
        <mxCell id="6FnOU0rwbtTwVomRZq-C-89" value="" style="endArrow=none;html=1;rounded=0;entryX=0;entryY=0.5;entryDx=0;entryDy=0;exitX=1;exitY=0.5;exitDx=0;exitDy=0;" edge="1" parent="1" source="6FnOU0rwbtTwVomRZq-C-80" target="6FnOU0rwbtTwVomRZq-C-57">
          <mxGeometry relative="1" as="geometry">
            <mxPoint x="810" y="620" as="sourcePoint" />
            <mxPoint x="970" y="620" as="targetPoint" />
          </mxGeometry>
        </mxCell>
        <mxCell id="6FnOU0rwbtTwVomRZq-C-90" value="1" style="resizable=0;html=1;whiteSpace=wrap;align=right;verticalAlign=bottom;" connectable="0" vertex="1" parent="6FnOU0rwbtTwVomRZq-C-89">
          <mxGeometry x="1" relative="1" as="geometry" />
        </mxCell>
        <mxCell id="6FnOU0rwbtTwVomRZq-C-93" value="" style="rounded=0;whiteSpace=wrap;html=1;" vertex="1" parent="1">
          <mxGeometry x="1060" y="157.5" width="120" height="60" as="geometry" />
        </mxCell>
        <mxCell id="6FnOU0rwbtTwVomRZq-C-94" value="" style="endArrow=classic;startArrow=classic;html=1;rounded=0;" edge="1" parent="1">
          <mxGeometry width="50" height="50" relative="1" as="geometry">
            <mxPoint x="1211" y="157.5" as="sourcePoint" />
            <mxPoint x="1281" y="157.5" as="targetPoint" />
          </mxGeometry>
        </mxCell>
        <mxCell id="6FnOU0rwbtTwVomRZq-C-95" value="" style="endArrow=classic;startArrow=classic;html=1;rounded=0;" edge="1" parent="1">
          <mxGeometry width="50" height="50" relative="1" as="geometry">
            <mxPoint x="1210" y="217.5" as="sourcePoint" />
            <mxPoint x="1280" y="217.5" as="targetPoint" />
          </mxGeometry>
        </mxCell>
        <mxCell id="6FnOU0rwbtTwVomRZq-C-96" value="" style="endArrow=classic;startArrow=classic;html=1;rounded=0;" edge="1" parent="1">
          <mxGeometry width="50" height="50" relative="1" as="geometry">
            <mxPoint x="1210" y="180" as="sourcePoint" />
            <mxPoint x="1280" y="180" as="targetPoint" />
          </mxGeometry>
        </mxCell>
        <mxCell id="6FnOU0rwbtTwVomRZq-C-97" value="" style="endArrow=classic;startArrow=classic;html=1;rounded=0;" edge="1" parent="1">
          <mxGeometry width="50" height="50" relative="1" as="geometry">
            <mxPoint x="1211" y="200" as="sourcePoint" />
            <mxPoint x="1281" y="200" as="targetPoint" />
          </mxGeometry>
        </mxCell>
        <mxCell id="6FnOU0rwbtTwVomRZq-C-98" value="" style="strokeWidth=2;html=1;shape=mxgraph.flowchart.annotation_2;align=left;labelPosition=right;pointerEvents=1;" vertex="1" parent="1">
          <mxGeometry x="1180" y="157.5" width="30" height="60" as="geometry" />
        </mxCell>
        <mxCell id="6FnOU0rwbtTwVomRZq-C-99" value="ID_Denuncia" style="text;html=1;align=center;verticalAlign=middle;whiteSpace=wrap;rounded=0;" vertex="1" parent="1">
          <mxGeometry x="1290" y="140" width="60" height="30" as="geometry" />
        </mxCell>
        <mxCell id="6FnOU0rwbtTwVomRZq-C-100" value="Data" style="text;html=1;align=center;verticalAlign=middle;whiteSpace=wrap;rounded=0;" vertex="1" parent="1">
          <mxGeometry x="1280" y="160" width="60" height="30" as="geometry" />
        </mxCell>
        <mxCell id="6FnOU0rwbtTwVomRZq-C-101" value="Descrição" style="text;html=1;align=center;verticalAlign=middle;whiteSpace=wrap;rounded=0;" vertex="1" parent="1">
          <mxGeometry x="1290" y="180" width="60" height="30" as="geometry" />
        </mxCell>
        <mxCell id="6FnOU0rwbtTwVomRZq-C-102" value="Status" style="text;html=1;align=center;verticalAlign=middle;whiteSpace=wrap;rounded=0;" vertex="1" parent="1">
          <mxGeometry x="1280" y="202.5" width="60" height="30" as="geometry" />
        </mxCell>
        <mxCell id="6FnOU0rwbtTwVomRZq-C-103" value="Denunciante" style="text;html=1;align=center;verticalAlign=middle;whiteSpace=wrap;rounded=0;" vertex="1" parent="1">
          <mxGeometry x="1090" y="172.5" width="60" height="30" as="geometry" />
        </mxCell>
        <mxCell id="6FnOU0rwbtTwVomRZq-C-104" value="n" style="resizable=0;html=1;whiteSpace=wrap;align=right;verticalAlign=bottom;" connectable="0" vertex="1" parent="1">
          <mxGeometry x="1060.2393918371386" y="187.37610422463877" as="geometry" />
        </mxCell>
        <mxCell id="6FnOU0rwbtTwVomRZq-C-109" value="" style="endArrow=none;html=1;rounded=0;entryX=0;entryY=0.5;entryDx=0;entryDy=0;exitX=1;exitY=0.5;exitDx=0;exitDy=0;" edge="1" parent="1" source="6FnOU0rwbtTwVomRZq-C-1" target="6FnOU0rwbtTwVomRZq-C-74">
          <mxGeometry relative="1" as="geometry">
            <mxPoint x="370" y="160" as="sourcePoint" />
            <mxPoint x="530" y="160" as="targetPoint" />
          </mxGeometry>
        </mxCell>
        <mxCell id="6FnOU0rwbtTwVomRZq-C-110" value="n" style="resizable=0;html=1;whiteSpace=wrap;align=right;verticalAlign=bottom;" connectable="0" vertex="1" parent="6FnOU0rwbtTwVomRZq-C-109">
          <mxGeometry x="1" relative="1" as="geometry" />
        </mxCell>
        <mxCell id="6FnOU0rwbtTwVomRZq-C-111" value="" style="endArrow=none;html=1;rounded=0;entryX=0;entryY=0.5;entryDx=0;entryDy=0;" edge="1" parent="1" source="6FnOU0rwbtTwVomRZq-C-74" target="6FnOU0rwbtTwVomRZq-C-93">
          <mxGeometry relative="1" as="geometry">
            <mxPoint x="815" y="167.5" as="sourcePoint" />
            <mxPoint x="975" y="167.5" as="targetPoint" />
          </mxGeometry>
        </mxCell>
        <mxCell id="6FnOU0rwbtTwVomRZq-C-127" value="" style="endArrow=none;html=1;rounded=0;entryX=0;entryY=0.5;entryDx=0;entryDy=0;" edge="1" parent="1" source="6FnOU0rwbtTwVomRZq-C-1" target="6FnOU0rwbtTwVomRZq-C-71">
          <mxGeometry relative="1" as="geometry">
            <mxPoint x="370" y="297.5" as="sourcePoint" />
            <mxPoint x="530" y="297.5" as="targetPoint" />
          </mxGeometry>
        </mxCell>
        <mxCell id="6FnOU0rwbtTwVomRZq-C-128" value="n" style="resizable=0;html=1;whiteSpace=wrap;align=right;verticalAlign=bottom;" connectable="0" vertex="1" parent="6FnOU0rwbtTwVomRZq-C-127">
          <mxGeometry x="1" relative="1" as="geometry" />
        </mxCell>
        <mxCell id="6FnOU0rwbtTwVomRZq-C-129" value="" style="endArrow=none;html=1;rounded=0;" edge="1" parent="1" target="6FnOU0rwbtTwVomRZq-C-71">
          <mxGeometry relative="1" as="geometry">
            <mxPoint x="370" y="460" as="sourcePoint" />
            <mxPoint x="710" y="370" as="targetPoint" />
          </mxGeometry>
        </mxCell>
        <mxCell id="6FnOU0rwbtTwVomRZq-C-130" value="n" style="resizable=0;html=1;whiteSpace=wrap;align=right;verticalAlign=bottom;" connectable="0" vertex="1" parent="6FnOU0rwbtTwVomRZq-C-129">
          <mxGeometry x="1" relative="1" as="geometry" />
        </mxCell>
        <mxCell id="6FnOU0rwbtTwVomRZq-C-131" value="" style="endArrow=none;html=1;rounded=0;entryX=0;entryY=0.5;entryDx=0;entryDy=0;" edge="1" parent="1" source="6FnOU0rwbtTwVomRZq-C-46" target="6FnOU0rwbtTwVomRZq-C-68">
          <mxGeometry relative="1" as="geometry">
            <mxPoint x="370" y="620" as="sourcePoint" />
            <mxPoint x="530" y="620" as="targetPoint" />
          </mxGeometry>
        </mxCell>
        <mxCell id="6FnOU0rwbtTwVomRZq-C-132" value="n" style="resizable=0;html=1;whiteSpace=wrap;align=right;verticalAlign=bottom;" connectable="0" vertex="1" parent="6FnOU0rwbtTwVomRZq-C-131">
          <mxGeometry x="1" relative="1" as="geometry" />
        </mxCell>
        <mxCell id="6FnOU0rwbtTwVomRZq-C-133" value="" style="endArrow=none;html=1;rounded=0;entryX=0.321;entryY=0.143;entryDx=0;entryDy=0;entryPerimeter=0;exitX=1;exitY=1;exitDx=0;exitDy=0;" edge="1" parent="1" source="6FnOU0rwbtTwVomRZq-C-1" target="6FnOU0rwbtTwVomRZq-C-68">
          <mxGeometry relative="1" as="geometry">
            <mxPoint x="550" y="510" as="sourcePoint" />
            <mxPoint x="710" y="550" as="targetPoint" />
          </mxGeometry>
        </mxCell>
        <mxCell id="6FnOU0rwbtTwVomRZq-C-134" value="n" style="resizable=0;html=1;whiteSpace=wrap;align=right;verticalAlign=bottom;" connectable="0" vertex="1" parent="6FnOU0rwbtTwVomRZq-C-133">
          <mxGeometry x="1" relative="1" as="geometry" />
        </mxCell>
        <mxCell id="6FnOU0rwbtTwVomRZq-C-135" value="" style="endArrow=none;html=1;rounded=0;exitX=1;exitY=0.5;exitDx=0;exitDy=0;" edge="1" parent="1" source="6FnOU0rwbtTwVomRZq-C-77">
          <mxGeometry relative="1" as="geometry">
            <mxPoint x="930" y="590" as="sourcePoint" />
            <mxPoint x="1090" y="590" as="targetPoint" />
          </mxGeometry>
        </mxCell>
        <mxCell id="6FnOU0rwbtTwVomRZq-C-136" value="n" style="resizable=0;html=1;whiteSpace=wrap;align=right;verticalAlign=bottom;" connectable="0" vertex="1" parent="6FnOU0rwbtTwVomRZq-C-135">
          <mxGeometry x="1" relative="1" as="geometry" />
        </mxCell>
        <mxCell id="6FnOU0rwbtTwVomRZq-C-137" value="" style="endArrow=none;html=1;rounded=0;entryX=0.5;entryY=0;entryDx=0;entryDy=0;exitX=1;exitY=0.75;exitDx=0;exitDy=0;" edge="1" parent="1" source="6FnOU0rwbtTwVomRZq-C-1" target="6FnOU0rwbtTwVomRZq-C-77">
          <mxGeometry relative="1" as="geometry">
            <mxPoint x="580" y="420" as="sourcePoint" />
            <mxPoint x="740" y="420" as="targetPoint" />
          </mxGeometry>
        </mxCell>
        <mxCell id="6FnOU0rwbtTwVomRZq-C-138" value="n" style="resizable=0;html=1;whiteSpace=wrap;align=right;verticalAlign=bottom;" connectable="0" vertex="1" parent="6FnOU0rwbtTwVomRZq-C-137">
          <mxGeometry x="1" relative="1" as="geometry" />
        </mxCell>
      </root>
    </mxGraphModel>
  </diagram>
</mxfile>
